<?xml version="1.0" standalone="no"?><!DOCTYPE svg PUBLIC "-//W3C//DTD SVG 1.1//EN" "http://www.w3.org/Graphics/SVG/1.1/DTD/svg11.dtd"><svg t="1670604652811" class="icon" viewBox="0 0 1024 1024" version="1.1" xmlns="http://www.w3.org/2000/svg" p-id="6280" width="512" height="512" xmlns:xlink="http://www.w3.org/1999/xlink"><path d="M899.049046 309.188474l-58.119696 58.183634-62.723237-62.691268-58.02379-57.99182-57.831975-57.800006 58.183635-58.215604z" fill="#FFB578" p-id="6281"></path><path d="M840.92935 367.372108l-52.333302 52.333302-84.174456-41.240048 73.784521-73.784522z" fill="#FF4893" p-id="6282"></path><path d="M782.745715 486.840373l-226.596485 411.888983-150.126564 63.010958-14.481971-133.214948 314.607224-381.64628z" fill="#5FCEFF" p-id="6283"></path><path d="M778.206113 304.68084l-73.784521 73.784522-57.991821-57.991821 73.752552-73.784521zM720.182323 246.68902l-73.752552 73.784521-36.316818-79.347132 52.237395-52.237395z" fill="#FF4893" p-id="6284"></path><path d="M602.919921 351.003965l63.650339 63.746246-320.073928 377.969841-146.769817 25.159627 25.159627-146.801786zM538.69414 239.591895l30.370579 70.235959-381.614312 314.607225-133.214948-14.51394 63.010959-150.094596z" fill="#5FCEFF" p-id="6285"></path><path d="M931.849271 298.798539a22.378321 22.378321 0 0 1-15.818276-38.206188c19.628984-19.616197 30.437713-45.690138 30.437713-73.429665s-10.808729-53.813468-30.437713-73.429665c-19.622591-19.619394-45.706122-30.424926-73.45524-30.424926s-53.83265 10.802335-73.448847 30.418532a22.378321 22.378321 0 0 1-31.649339-31.646142c28.068808-28.068808 65.392651-43.529031 105.098186-43.529032s77.029378 15.457026 105.098186 43.529032c28.078399 28.062415 43.548213 65.38306 43.548213 105.082201s-15.469814 77.01659-43.554607 105.085399a22.301595 22.301595 0 0 1-15.818276 6.550454z" fill="#4F46A3" p-id="6286"></path><path d="M899.049046 331.566795a22.31758 22.31758 0 0 1-15.82467-6.553651l-178.515063-178.515064a22.378321 22.378321 0 0 1 0-31.646143l32.768256-32.768256a22.378321 22.378321 0 0 1 31.649339 31.646143l-16.946782 16.943586 146.872117 146.875315 16.978752-16.959571a22.378321 22.378321 0 0 1 31.630158 31.662128l-32.800225 32.768255a22.295202 22.295202 0 0 1-15.811882 6.547258z" fill="#4F46A3" p-id="6287"></path><path d="M840.92935 389.750429a22.378321 22.378321 0 0 1-15.831064-38.1934l58.122893-58.183634a22.378321 22.378321 0 0 1 31.662128 31.630158l-58.122894 58.183634a22.311186 22.311186 0 0 1-15.831063 6.563242zM662.350348 211.267335a22.378321 22.378321 0 0 1-15.827867-38.196597l58.183635-58.215604a22.378321 22.378321 0 0 1 31.655733 31.636552l-58.183634 58.215604a22.304792 22.304792 0 0 1-15.827867 6.560045z" fill="#4F46A3" p-id="6288"></path><path d="M788.596048 442.083731a22.378321 22.378321 0 0 1-15.82467-38.199794l36.508632-36.505435-146.923268-146.843345-36.415922 36.419119a22.378321 22.378321 0 0 1-31.64934-31.646143l52.237395-52.237395a22.378321 22.378321 0 0 1 31.642946-0.003197l178.575805 178.483094a22.378321 22.378321 0 0 1 0.006394 31.652537l-52.333303 52.333302a22.346352 22.346352 0 0 1-15.824669 6.547257z" fill="#4F46A3" p-id="6289"></path><path d="M704.421592 400.843683a22.378321 22.378321 0 0 1-15.82467-38.199794l73.781324-73.784522a22.378321 22.378321 0 0 1 31.64934 31.646143l-73.781325 73.784522a22.323974 22.323974 0 0 1-15.824669 6.553651zM646.429771 342.851862a22.378321 22.378321 0 0 1-15.827867-38.196597l73.752553-73.784521a22.378321 22.378321 0 0 1 31.655733 31.639749l-73.752552 73.784521a22.314383 22.314383 0 0 1-15.827867 6.556848zM199.723318 840.258a22.387912 22.387912 0 0 1-22.055434-26.160257l25.159627-146.801786a22.387912 22.387912 0 0 1 7.595841-13.299116l378.03378-320.070732a22.375124 22.375124 0 0 1 30.29705 1.265974l63.647142 63.746245a22.375124 22.375124 0 0 1 1.243595 30.271475l-320.073928 377.966645a22.371927 22.371927 0 0 1-13.29592 7.595841l-146.769817 25.159627a22.218476 22.218476 0 0 1-3.781936 0.326084z m45.843589-157.36755l-18.439736 107.585377 107.556604-18.439737 301.506316-356.042284-34.53934-34.593687L245.566907 682.89045zM406.025862 984.118635a22.378321 22.378321 0 0 1-22.250444-19.958265l-14.481971-133.214948a22.36873 22.36873 0 0 1 4.980775-16.652668l314.610421-381.64628a22.36873 22.36873 0 0 1 27.618045-5.604171l76.600993 39.961287a22.384715 22.384715 0 0 1 9.255034 30.626331L575.759033 909.518904a22.352746 22.352746 0 0 1-10.946195 9.846461l-150.123368 63.010958a22.458244 22.458244 0 0 1-8.663608 1.742312z m8.781893-148.636808l10.220499 94.011327 115.270731-48.38193 211.814006-385.01262-40.233025-20.987668-297.072211 360.370891zM187.450407 646.8134c-0.80562 0-1.614436-0.044757-2.423252-0.131074l-133.214948-14.513939a22.384715 22.384715 0 0 1-18.20956-30.910855l63.010959-150.091399a22.394306 22.394306 0 0 1 10.268452-11.173176l421.447723-220.234648a22.387912 22.387912 0 0 1 30.904461 10.95259l30.370578 70.235959a22.378321 22.378321 0 0 1-6.304292 26.150666l-381.614312 314.607225a22.41029 22.41029 0 0 1-14.235809 5.108651z m-100.970984-55.891456l94.014523 10.242878 361.35234-297.903406-14.133508-32.685137-392.953726 205.349868-48.279629 114.995797z" fill="#4F46A3" p-id="6290"></path><path d="M788.580063 442.086928a22.314383 22.314383 0 0 1-9.830477-2.285785l-84.171259-41.240049a22.378321 22.378321 0 1 1 19.692923-40.191465l84.171259 41.240049a22.378321 22.378321 0 0 1-9.862446 42.47725z" fill="#4F46A3" p-id="6291"></path><path d="M704.421592 400.843683a22.311186 22.311186 0 0 1-15.821473-6.553651l-57.995018-57.991821a22.378321 22.378321 0 1 1 31.642946-31.646143l57.995018 57.991821a22.378321 22.378321 0 0 1-15.821473 38.199794z" fill="#4F46A3" p-id="6292"></path><path d="M646.442559 342.855059a22.378321 22.378321 0 0 1-20.361075-13.068939l-36.313622-79.347133a22.381518 22.381518 0 0 1 40.696576-18.625157l36.313621 79.347133a22.381518 22.381518 0 0 1-20.3355 31.694096z" fill="#4F46A3" p-id="6293"></path></svg>